<mxfile host="app.diagrams.net" agent="Mozilla/5.0 (Windows NT 10.0; Win64; x64; rv:131.0) Gecko/20100101 Firefox/131.0" version="24.7.17">
  <diagram name="Страница — 1" id="X-kzBbZVKX_LICPjZ_td">
    <mxGraphModel dx="1444" dy="849" grid="1" gridSize="10" guides="1" tooltips="1" connect="1" arrows="1" fold="1" page="1" pageScale="1" pageWidth="827" pageHeight="1169" math="0" shadow="0">
      <root>
        <mxCell id="0" />
        <mxCell id="1" parent="0" />
        <mxCell id="VBmdsLyCv_HSWNaAxPap-1" value="Клиент" style="swimlane;html=1;startSize=20;fontStyle=0;collapsible=0;horizontal=0;swimlaneLine=1;swimlaneFillColor=#ffffff;strokeWidth=2;whiteSpace=wrap;" vertex="1" parent="1">
          <mxGeometry x="120" y="10" width="1240" height="50" as="geometry" />
        </mxCell>
        <mxCell id="VBmdsLyCv_HSWNaAxPap-3" value="Отель" style="swimlane;html=1;startSize=20;fontStyle=0;collapsible=0;horizontal=0;swimlaneLine=1;swimlaneFillColor=#ffffff;strokeWidth=2;whiteSpace=wrap;" vertex="1" parent="1">
          <mxGeometry x="120" y="840" width="1240" height="50" as="geometry" />
        </mxCell>
        <mxCell id="VBmdsLyCv_HSWNaAxPap-18" value="" style="edgeStyle=elbowEdgeStyle;fontSize=12;html=1;endFill=0;startFill=0;endSize=6;startSize=6;dashed=1;dashPattern=1 4;endArrow=openThin;startArrow=none;rounded=0;entryX=0.5;entryY=0;entryDx=0;entryDy=0;entryPerimeter=0;" edge="1" parent="1" target="VBmdsLyCv_HSWNaAxPap-41">
          <mxGeometry width="160" relative="1" as="geometry">
            <mxPoint x="960" y="290" as="sourcePoint" />
            <mxPoint x="960" y="310" as="targetPoint" />
            <Array as="points">
              <mxPoint x="960" y="280" />
            </Array>
          </mxGeometry>
        </mxCell>
        <mxCell id="VBmdsLyCv_HSWNaAxPap-36" value="Система бронирования" style="swimlane;html=1;startSize=20;fontStyle=0;collapsible=0;horizontal=0;swimlaneLine=1;swimlaneFillColor=#ffffff;strokeWidth=2;whiteSpace=wrap;" vertex="1" parent="1">
          <mxGeometry x="120" y="140" width="1240" height="640" as="geometry" />
        </mxCell>
        <mxCell id="VBmdsLyCv_HSWNaAxPap-37" value="&lt;div&gt;Поступление обращения&lt;/div&gt;&lt;div&gt;клиента&lt;/div&gt;" style="points=[[0.145,0.145,0],[0.5,0,0],[0.855,0.145,0],[1,0.5,0],[0.855,0.855,0],[0.5,1,0],[0.145,0.855,0],[0,0.5,0]];shape=mxgraph.bpmn.event;html=1;verticalLabelPosition=bottom;labelBackgroundColor=#ffffff;verticalAlign=top;align=center;perimeter=ellipsePerimeter;outlineConnect=0;aspect=fixed;outline=standard;symbol=general;" vertex="1" parent="VBmdsLyCv_HSWNaAxPap-36">
          <mxGeometry x="100" y="30" width="40" height="40" as="geometry" />
        </mxCell>
        <mxCell id="VBmdsLyCv_HSWNaAxPap-38" value="Открыть форму для авторизации/регистрации" style="points=[[0.25,0,0],[0.5,0,0],[0.75,0,0],[1,0.25,0],[1,0.5,0],[1,0.75,0],[0.75,1,0],[0.5,1,0],[0.25,1,0],[0,0.75,0],[0,0.5,0],[0,0.25,0]];shape=mxgraph.bpmn.task;whiteSpace=wrap;rectStyle=rounded;size=10;html=1;container=1;expand=0;collapsible=0;taskMarker=abstract;" vertex="1" parent="VBmdsLyCv_HSWNaAxPap-36">
          <mxGeometry x="210" y="20" width="120" height="60" as="geometry" />
        </mxCell>
        <mxCell id="VBmdsLyCv_HSWNaAxPap-39" value="" style="edgeStyle=elbowEdgeStyle;fontSize=12;html=1;endArrow=blockThin;endFill=1;rounded=0;exitX=1;exitY=0.5;exitDx=0;exitDy=0;exitPerimeter=0;" edge="1" parent="VBmdsLyCv_HSWNaAxPap-36" source="VBmdsLyCv_HSWNaAxPap-37" target="VBmdsLyCv_HSWNaAxPap-38">
          <mxGeometry width="160" relative="1" as="geometry">
            <mxPoint x="140" y="40" as="sourcePoint" />
            <mxPoint x="120" y="95" as="targetPoint" />
          </mxGeometry>
        </mxCell>
        <mxCell id="VBmdsLyCv_HSWNaAxPap-40" value="" style="edgeStyle=elbowEdgeStyle;fontSize=12;html=1;endArrow=blockThin;endFill=1;rounded=0;exitX=1;exitY=0.5;exitDx=0;exitDy=0;exitPerimeter=0;" edge="1" parent="VBmdsLyCv_HSWNaAxPap-36">
          <mxGeometry width="160" relative="1" as="geometry">
            <mxPoint x="330" y="49.5" as="sourcePoint" />
            <mxPoint x="410" y="49.5" as="targetPoint" />
          </mxGeometry>
        </mxCell>
        <mxCell id="VBmdsLyCv_HSWNaAxPap-41" value="Предложить выбрать даты и тип номера" style="points=[[0.25,0,0],[0.5,0,0],[0.75,0,0],[1,0.25,0],[1,0.5,0],[1,0.75,0],[0.75,1,0],[0.5,1,0],[0.25,1,0],[0,0.75,0],[0,0.5,0],[0,0.25,0]];shape=mxgraph.bpmn.task;whiteSpace=wrap;rectStyle=rounded;size=10;html=1;container=1;expand=0;collapsible=0;taskMarker=abstract;" vertex="1" parent="VBmdsLyCv_HSWNaAxPap-36">
          <mxGeometry x="530" y="20" width="120" height="60" as="geometry" />
        </mxCell>
        <mxCell id="VBmdsLyCv_HSWNaAxPap-42" value="&lt;div&gt;Авторизация/регистрация&lt;/div&gt;&lt;div&gt;клиента по номеру телефона&lt;br&gt;&lt;/div&gt;" style="points=[[0.145,0.145,0],[0.5,0,0],[0.855,0.145,0],[1,0.5,0],[0.855,0.855,0],[0.5,1,0],[0.145,0.855,0],[0,0.5,0]];shape=mxgraph.bpmn.event;html=1;verticalLabelPosition=bottom;labelBackgroundColor=#ffffff;verticalAlign=top;align=center;perimeter=ellipsePerimeter;outlineConnect=0;aspect=fixed;outline=throwing;symbol=general;" vertex="1" parent="VBmdsLyCv_HSWNaAxPap-36">
          <mxGeometry x="410" y="30" width="40" height="40" as="geometry" />
        </mxCell>
        <mxCell id="VBmdsLyCv_HSWNaAxPap-43" value="" style="edgeStyle=elbowEdgeStyle;fontSize=12;html=1;endArrow=blockThin;endFill=1;rounded=0;exitX=1;exitY=0.5;exitDx=0;exitDy=0;exitPerimeter=0;" edge="1" parent="VBmdsLyCv_HSWNaAxPap-36">
          <mxGeometry width="160" relative="1" as="geometry">
            <mxPoint x="450" y="50" as="sourcePoint" />
            <mxPoint x="530" y="50" as="targetPoint" />
          </mxGeometry>
        </mxCell>
        <mxCell id="VBmdsLyCv_HSWNaAxPap-44" value="" style="edgeStyle=elbowEdgeStyle;fontSize=12;html=1;endArrow=blockThin;endFill=1;rounded=0;exitX=1;exitY=0.5;exitDx=0;exitDy=0;exitPerimeter=0;" edge="1" parent="VBmdsLyCv_HSWNaAxPap-36">
          <mxGeometry width="160" relative="1" as="geometry">
            <mxPoint x="650" y="49.5" as="sourcePoint" />
            <mxPoint x="730" y="49.5" as="targetPoint" />
          </mxGeometry>
        </mxCell>
        <mxCell id="VBmdsLyCv_HSWNaAxPap-45" value="Проверить доступность номера на выбранные даты" style="points=[[0.25,0,0],[0.5,0,0],[0.75,0,0],[1,0.25,0],[1,0.5,0],[1,0.75,0],[0.75,1,0],[0.5,1,0],[0.25,1,0],[0,0.75,0],[0,0.5,0],[0,0.25,0]];shape=mxgraph.bpmn.task;whiteSpace=wrap;rectStyle=rounded;size=10;html=1;container=1;expand=0;collapsible=0;taskMarker=abstract;" vertex="1" parent="VBmdsLyCv_HSWNaAxPap-36">
          <mxGeometry x="730" y="20" width="120" height="60" as="geometry" />
        </mxCell>
        <mxCell id="VBmdsLyCv_HSWNaAxPap-46" value="" style="points=[[0.145,0.145,0],[0.5,0,0],[0.855,0.145,0],[1,0.5,0],[0.855,0.855,0],[0.5,1,0],[0.145,0.855,0],[0,0.5,0]];shape=mxgraph.bpmn.event;html=1;verticalLabelPosition=bottom;labelBackgroundColor=#ffffff;verticalAlign=top;align=center;perimeter=ellipsePerimeter;outlineConnect=0;aspect=fixed;outline=boundInt;symbol=error;" vertex="1" parent="VBmdsLyCv_HSWNaAxPap-45">
          <mxGeometry x="80" y="50" width="30" height="30" as="geometry" />
        </mxCell>
        <mxCell id="VBmdsLyCv_HSWNaAxPap-47" value="" style="edgeStyle=elbowEdgeStyle;fontSize=12;html=1;endFill=0;startFill=0;endSize=6;startSize=6;dashed=1;dashPattern=1 4;endArrow=openThin;startArrow=none;rounded=0;" edge="1" parent="VBmdsLyCv_HSWNaAxPap-36">
          <mxGeometry width="160" relative="1" as="geometry">
            <mxPoint x="780" y="90" as="sourcePoint" />
            <mxPoint x="780" y="700" as="targetPoint" />
            <Array as="points">
              <mxPoint x="780" y="80" />
            </Array>
          </mxGeometry>
        </mxCell>
        <mxCell id="VBmdsLyCv_HSWNaAxPap-49" value="" style="edgeStyle=elbowEdgeStyle;fontSize=12;html=1;endArrow=blockThin;endFill=1;rounded=0;exitX=1;exitY=0.5;exitDx=0;exitDy=0;exitPerimeter=0;" edge="1" parent="VBmdsLyCv_HSWNaAxPap-36">
          <mxGeometry width="160" relative="1" as="geometry">
            <mxPoint x="850" y="49.5" as="sourcePoint" />
            <mxPoint x="930" y="49.5" as="targetPoint" />
          </mxGeometry>
        </mxCell>
        <mxCell id="VBmdsLyCv_HSWNaAxPap-50" value="Предложить альтернативные варианты размещения" style="points=[[0.25,0,0],[0.5,0,0],[0.75,0,0],[1,0.25,0],[1,0.5,0],[1,0.75,0],[0.75,1,0],[0.5,1,0],[0.25,1,0],[0,0.75,0],[0,0.5,0],[0,0.25,0]];shape=mxgraph.bpmn.task;whiteSpace=wrap;rectStyle=rounded;size=10;html=1;container=1;expand=0;collapsible=0;taskMarker=abstract;" vertex="1" parent="VBmdsLyCv_HSWNaAxPap-36">
          <mxGeometry x="895" y="110" width="120" height="60" as="geometry" />
        </mxCell>
        <mxCell id="VBmdsLyCv_HSWNaAxPap-52" value="" style="points=[[0.25,0.25,0],[0.5,0,0],[0.75,0.25,0],[1,0.5,0],[0.75,0.75,0],[0.5,1,0],[0.25,0.75,0],[0,0.5,0]];shape=mxgraph.bpmn.gateway2;html=1;verticalLabelPosition=bottom;labelBackgroundColor=#ffffff;verticalAlign=top;align=center;perimeter=rhombusPerimeter;outlineConnect=0;outline=none;symbol=none;gwType=exclusive;" vertex="1" parent="VBmdsLyCv_HSWNaAxPap-36">
          <mxGeometry x="930" y="25" width="50" height="50" as="geometry" />
        </mxCell>
        <mxCell id="VBmdsLyCv_HSWNaAxPap-53" value="" style="edgeStyle=elbowEdgeStyle;fontSize=12;html=1;endArrow=blockThin;endFill=1;rounded=0;exitX=0.5;exitY=0;exitDx=0;exitDy=0;exitPerimeter=0;entryX=0.5;entryY=1;entryDx=0;entryDy=0;entryPerimeter=0;" edge="1" parent="VBmdsLyCv_HSWNaAxPap-36" source="VBmdsLyCv_HSWNaAxPap-50" target="VBmdsLyCv_HSWNaAxPap-52">
          <mxGeometry width="160" relative="1" as="geometry">
            <mxPoint x="940" y="190" as="sourcePoint" />
            <mxPoint x="960" y="80" as="targetPoint" />
          </mxGeometry>
        </mxCell>
        <mxCell id="VBmdsLyCv_HSWNaAxPap-54" value="" style="edgeStyle=elbowEdgeStyle;fontSize=12;html=1;endArrow=blockThin;endFill=1;rounded=0;exitX=1;exitY=0.5;exitDx=0;exitDy=0;exitPerimeter=0;" edge="1" parent="VBmdsLyCv_HSWNaAxPap-36">
          <mxGeometry width="160" relative="1" as="geometry">
            <mxPoint x="980" y="49.5" as="sourcePoint" />
            <mxPoint x="1060" y="49.5" as="targetPoint" />
          </mxGeometry>
        </mxCell>
        <mxCell id="VBmdsLyCv_HSWNaAxPap-58" value="" style="edgeStyle=elbowEdgeStyle;fontSize=12;html=1;endFill=0;startFill=0;endSize=6;startSize=6;dashed=1;dashPattern=1 4;endArrow=openThin;startArrow=none;rounded=0;entryX=0.5;entryY=1;entryDx=0;entryDy=0;entryPerimeter=0;" edge="1" parent="VBmdsLyCv_HSWNaAxPap-36">
          <mxGeometry width="160" relative="1" as="geometry">
            <mxPoint x="801" y="700" as="sourcePoint" />
            <mxPoint x="800.5" y="80" as="targetPoint" />
            <Array as="points">
              <mxPoint x="800" y="120" />
            </Array>
          </mxGeometry>
        </mxCell>
        <mxCell id="VBmdsLyCv_HSWNaAxPap-61" value="" style="edgeStyle=orthogonalEdgeStyle;fontSize=12;html=1;endArrow=blockThin;endFill=1;rounded=0;elbow=vertical;exitX=1;exitY=0.5;exitDx=0;exitDy=0;exitPerimeter=0;entryX=0.5;entryY=0;entryDx=0;entryDy=0;entryPerimeter=0;" edge="1" parent="VBmdsLyCv_HSWNaAxPap-36" target="VBmdsLyCv_HSWNaAxPap-65">
          <mxGeometry width="160" relative="1" as="geometry">
            <mxPoint x="1181" y="50" as="sourcePoint" />
            <mxPoint x="120" y="190" as="targetPoint" />
            <Array as="points">
              <mxPoint x="1191" y="50" />
              <mxPoint x="1191" y="200" />
              <mxPoint x="120" y="200" />
            </Array>
          </mxGeometry>
        </mxCell>
        <mxCell id="VBmdsLyCv_HSWNaAxPap-65" value="Проверить статус клиента" style="points=[[0.25,0,0],[0.5,0,0],[0.75,0,0],[1,0.25,0],[1,0.5,0],[1,0.75,0],[0.75,1,0],[0.5,1,0],[0.25,1,0],[0,0.75,0],[0,0.5,0],[0,0.25,0]];shape=mxgraph.bpmn.task;whiteSpace=wrap;rectStyle=rounded;size=10;html=1;container=1;expand=0;collapsible=0;taskMarker=abstract;" vertex="1" parent="VBmdsLyCv_HSWNaAxPap-36">
          <mxGeometry x="60" y="220" width="120" height="60" as="geometry" />
        </mxCell>
        <mxCell id="VBmdsLyCv_HSWNaAxPap-66" value="" style="edgeStyle=elbowEdgeStyle;fontSize=12;html=1;endArrow=blockThin;endFill=1;rounded=0;exitX=1;exitY=0.5;exitDx=0;exitDy=0;exitPerimeter=0;" edge="1" parent="VBmdsLyCv_HSWNaAxPap-36">
          <mxGeometry width="160" relative="1" as="geometry">
            <mxPoint x="180" y="244.33000000000004" as="sourcePoint" />
            <mxPoint x="260" y="244.33000000000004" as="targetPoint" />
          </mxGeometry>
        </mxCell>
        <mxCell id="VBmdsLyCv_HSWNaAxPap-68" value="Нет" style="edgeStyle=elbowEdgeStyle;fontSize=12;html=1;endArrow=blockThin;endFill=1;rounded=0;exitX=1;exitY=0.5;exitDx=0;exitDy=0;exitPerimeter=0;elbow=vertical;" edge="1" parent="VBmdsLyCv_HSWNaAxPap-36">
          <mxGeometry width="160" relative="1" as="geometry">
            <mxPoint x="310" y="244.66000000000003" as="sourcePoint" />
            <mxPoint x="390" y="244.66000000000003" as="targetPoint" />
          </mxGeometry>
        </mxCell>
        <mxCell id="VBmdsLyCv_HSWNaAxPap-69" value="Да" style="edgeStyle=elbowEdgeStyle;fontSize=12;html=1;endArrow=blockThin;endFill=1;rounded=0;elbow=vertical;entryX=0.5;entryY=0;entryDx=0;entryDy=0;entryPerimeter=0;" edge="1" parent="VBmdsLyCv_HSWNaAxPap-36" source="VBmdsLyCv_HSWNaAxPap-67" target="VBmdsLyCv_HSWNaAxPap-70">
          <mxGeometry width="160" relative="1" as="geometry">
            <mxPoint x="284.33" y="245" as="sourcePoint" />
            <mxPoint x="284.33" y="315" as="targetPoint" />
          </mxGeometry>
        </mxCell>
        <mxCell id="VBmdsLyCv_HSWNaAxPap-70" value="Предложить скидку" style="points=[[0.25,0,0],[0.5,0,0],[0.75,0,0],[1,0.25,0],[1,0.5,0],[1,0.75,0],[0.75,1,0],[0.5,1,0],[0.25,1,0],[0,0.75,0],[0,0.5,0],[0,0.25,0]];shape=mxgraph.bpmn.task;whiteSpace=wrap;rectStyle=rounded;size=10;html=1;container=1;expand=0;collapsible=0;taskMarker=abstract;" vertex="1" parent="VBmdsLyCv_HSWNaAxPap-36">
          <mxGeometry x="225" y="320" width="120" height="60" as="geometry" />
        </mxCell>
        <mxCell id="VBmdsLyCv_HSWNaAxPap-71" value="Предложить выбрать способ оплаты" style="points=[[0.25,0,0],[0.5,0,0],[0.75,0,0],[1,0.25,0],[1,0.5,0],[1,0.75,0],[0.75,1,0],[0.5,1,0],[0.25,1,0],[0,0.75,0],[0,0.5,0],[0,0.25,0]];shape=mxgraph.bpmn.task;whiteSpace=wrap;rectStyle=rounded;size=10;html=1;container=1;expand=0;collapsible=0;taskMarker=abstract;" vertex="1" parent="VBmdsLyCv_HSWNaAxPap-36">
          <mxGeometry x="390" y="220" width="120" height="60" as="geometry" />
        </mxCell>
        <mxCell id="VBmdsLyCv_HSWNaAxPap-73" value="" style="edgeStyle=orthogonalEdgeStyle;fontSize=12;html=1;endArrow=blockThin;endFill=1;rounded=0;exitX=1;exitY=0.5;exitDx=0;exitDy=0;exitPerimeter=0;entryX=0.5;entryY=1;entryDx=0;entryDy=0;entryPerimeter=0;" edge="1" parent="VBmdsLyCv_HSWNaAxPap-36" target="VBmdsLyCv_HSWNaAxPap-71">
          <mxGeometry width="160" relative="1" as="geometry">
            <mxPoint x="345" y="349.33000000000004" as="sourcePoint" />
            <mxPoint x="500" y="340" as="targetPoint" />
          </mxGeometry>
        </mxCell>
        <mxCell id="VBmdsLyCv_HSWNaAxPap-74" value="&lt;div&gt;Уведомить об отсутствии&lt;/div&gt;&lt;div&gt;свободных номеров&lt;br&gt;&lt;/div&gt;" style="points=[[0.145,0.145,0],[0.5,0,0],[0.855,0.145,0],[1,0.5,0],[0.855,0.855,0],[0.5,1,0],[0.145,0.855,0],[0,0.5,0]];shape=mxgraph.bpmn.event;html=1;verticalLabelPosition=bottom;labelBackgroundColor=#ffffff;verticalAlign=top;align=center;perimeter=ellipsePerimeter;outlineConnect=0;aspect=fixed;outline=throwing;symbol=message;" vertex="1" parent="VBmdsLyCv_HSWNaAxPap-36">
          <mxGeometry x="805" y="120" width="40" height="40" as="geometry" />
        </mxCell>
        <mxCell id="VBmdsLyCv_HSWNaAxPap-67" value="Постоянный клиент?" style="points=[[0.25,0.25,0],[0.5,0,0],[0.75,0.25,0],[1,0.5,0],[0.75,0.75,0],[0.5,1,0],[0.25,0.75,0],[0,0.5,0]];shape=mxgraph.bpmn.gateway2;html=1;verticalLabelPosition=bottom;labelBackgroundColor=#ffffff;verticalAlign=top;align=center;perimeter=rhombusPerimeter;outlineConnect=0;outline=none;symbol=none;gwType=exclusive;" vertex="1" parent="VBmdsLyCv_HSWNaAxPap-36">
          <mxGeometry x="260" y="220" width="50" height="50" as="geometry" />
        </mxCell>
        <mxCell id="VBmdsLyCv_HSWNaAxPap-79" value="" style="fontSize=12;html=1;endArrow=blockThin;endFill=1;rounded=0;exitX=0.5;exitY=1;exitDx=0;exitDy=0;exitPerimeter=0;entryX=0.5;entryY=0;entryDx=0;entryDy=0;entryPerimeter=0;" edge="1" parent="VBmdsLyCv_HSWNaAxPap-36" source="VBmdsLyCv_HSWNaAxPap-46" target="VBmdsLyCv_HSWNaAxPap-74">
          <mxGeometry width="160" relative="1" as="geometry">
            <mxPoint x="610" y="330" as="sourcePoint" />
            <mxPoint x="790" y="340" as="targetPoint" />
          </mxGeometry>
        </mxCell>
        <mxCell id="VBmdsLyCv_HSWNaAxPap-76" value="" style="edgeStyle=elbowEdgeStyle;fontSize=12;html=1;endArrow=blockThin;endFill=1;rounded=0;exitX=1;exitY=0.5;exitDx=0;exitDy=0;exitPerimeter=0;entryX=0;entryY=0.5;entryDx=0;entryDy=0;entryPerimeter=0;" edge="1" parent="VBmdsLyCv_HSWNaAxPap-36" source="VBmdsLyCv_HSWNaAxPap-74" target="VBmdsLyCv_HSWNaAxPap-50">
          <mxGeometry width="160" relative="1" as="geometry">
            <mxPoint x="850" y="139.32999999999998" as="sourcePoint" />
            <mxPoint x="930" y="139.32999999999998" as="targetPoint" />
          </mxGeometry>
        </mxCell>
        <mxCell id="VBmdsLyCv_HSWNaAxPap-80" value="" style="edgeStyle=elbowEdgeStyle;fontSize=12;html=1;endArrow=blockThin;endFill=1;rounded=0;exitX=1;exitY=0.5;exitDx=0;exitDy=0;exitPerimeter=0;" edge="1" parent="VBmdsLyCv_HSWNaAxPap-36" target="VBmdsLyCv_HSWNaAxPap-81">
          <mxGeometry width="160" relative="1" as="geometry">
            <mxPoint x="510" y="249.50000000000006" as="sourcePoint" />
            <mxPoint x="590" y="249.50000000000006" as="targetPoint" />
          </mxGeometry>
        </mxCell>
        <mxCell id="VBmdsLyCv_HSWNaAxPap-82" value="Да" style="edgeStyle=elbowEdgeStyle;fontSize=12;html=1;endArrow=blockThin;endFill=1;rounded=0;exitX=1;exitY=0.5;exitDx=0;exitDy=0;exitPerimeter=0;elbow=vertical;entryX=0;entryY=0.5;entryDx=0;entryDy=0;entryPerimeter=0;" edge="1" parent="VBmdsLyCv_HSWNaAxPap-36" target="VBmdsLyCv_HSWNaAxPap-84">
          <mxGeometry width="160" relative="1" as="geometry">
            <mxPoint x="610" y="249.50000000000006" as="sourcePoint" />
            <mxPoint x="665" y="250" as="targetPoint" />
          </mxGeometry>
        </mxCell>
        <mxCell id="VBmdsLyCv_HSWNaAxPap-84" value="Сформировать подтверждение бронирования" style="points=[[0.25,0,0],[0.5,0,0],[0.75,0,0],[1,0.25,0],[1,0.5,0],[1,0.75,0],[0.75,1,0],[0.5,1,0],[0.25,1,0],[0,0.75,0],[0,0.5,0],[0,0.25,0]];shape=mxgraph.bpmn.task;whiteSpace=wrap;rectStyle=rounded;size=10;html=1;container=1;expand=0;collapsible=0;taskMarker=abstract;" vertex="1" parent="VBmdsLyCv_HSWNaAxPap-36">
          <mxGeometry x="670" y="220" width="120" height="60" as="geometry" />
        </mxCell>
        <mxCell id="VBmdsLyCv_HSWNaAxPap-85" value="" style="edgeStyle=elbowEdgeStyle;fontSize=12;html=1;endArrow=blockThin;endFill=1;rounded=0;exitX=1;exitY=0.5;exitDx=0;exitDy=0;exitPerimeter=0;" edge="1" parent="VBmdsLyCv_HSWNaAxPap-36">
          <mxGeometry width="160" relative="1" as="geometry">
            <mxPoint x="790" y="249.50000000000006" as="sourcePoint" />
            <mxPoint x="845" y="250" as="targetPoint" />
          </mxGeometry>
        </mxCell>
        <mxCell id="VBmdsLyCv_HSWNaAxPap-86" value="&lt;div&gt;Отправить подтверждение&lt;/div&gt;&lt;div&gt;бронирования клиенту&lt;/div&gt;&lt;div&gt;на электронную почту&lt;br&gt;&lt;/div&gt;" style="points=[[0.145,0.145,0],[0.5,0,0],[0.855,0.145,0],[1,0.5,0],[0.855,0.855,0],[0.5,1,0],[0.145,0.855,0],[0,0.5,0]];shape=mxgraph.bpmn.event;html=1;verticalLabelPosition=bottom;labelBackgroundColor=#ffffff;verticalAlign=top;align=center;perimeter=ellipsePerimeter;outlineConnect=0;aspect=fixed;outline=throwing;symbol=message;" vertex="1" parent="VBmdsLyCv_HSWNaAxPap-36">
          <mxGeometry x="845" y="230" width="40" height="40" as="geometry" />
        </mxCell>
        <mxCell id="VBmdsLyCv_HSWNaAxPap-87" value="" style="edgeStyle=orthogonalEdgeStyle;fontSize=12;html=1;endFill=0;startFill=0;endSize=6;startSize=6;dashed=1;dashPattern=1 4;endArrow=openThin;startArrow=none;rounded=0;exitX=0.5;exitY=0;exitDx=0;exitDy=0;exitPerimeter=0;" edge="1" parent="VBmdsLyCv_HSWNaAxPap-36" source="VBmdsLyCv_HSWNaAxPap-86">
          <mxGeometry width="160" relative="1" as="geometry">
            <mxPoint x="865" y="390" as="sourcePoint" />
            <mxPoint x="865" y="-80" as="targetPoint" />
          </mxGeometry>
        </mxCell>
        <mxCell id="VBmdsLyCv_HSWNaAxPap-89" value="&lt;div&gt;Направить информацию&lt;/div&gt;&lt;div&gt;о заезде гостя&lt;/div&gt;&lt;div&gt;в службу размещения&lt;br&gt;&lt;/div&gt;" style="points=[[0.145,0.145,0],[0.5,0,0],[0.855,0.145,0],[1,0.5,0],[0.855,0.855,0],[0.5,1,0],[0.145,0.855,0],[0,0.5,0]];shape=mxgraph.bpmn.event;html=1;verticalLabelPosition=bottom;labelBackgroundColor=#ffffff;verticalAlign=top;align=center;perimeter=ellipsePerimeter;outlineConnect=0;aspect=fixed;outline=throwing;symbol=message;" vertex="1" parent="VBmdsLyCv_HSWNaAxPap-36">
          <mxGeometry x="1000" y="230" width="40" height="40" as="geometry" />
        </mxCell>
        <mxCell id="VBmdsLyCv_HSWNaAxPap-91" value="" style="edgeStyle=elbowEdgeStyle;fontSize=12;html=1;endArrow=blockThin;endFill=1;rounded=0;exitX=1;exitY=0.5;exitDx=0;exitDy=0;exitPerimeter=0;" edge="1" parent="VBmdsLyCv_HSWNaAxPap-36">
          <mxGeometry width="160" relative="1" as="geometry">
            <mxPoint x="885" y="249.50000000000006" as="sourcePoint" />
            <mxPoint x="1000" y="250" as="targetPoint" />
          </mxGeometry>
        </mxCell>
        <mxCell id="VBmdsLyCv_HSWNaAxPap-103" value="Провести онлайн оплату" style="points=[[0.25,0,0],[0.5,0,0],[0.75,0,0],[1,0.25,0],[1,0.5,0],[1,0.75,0],[0.75,1,0],[0.5,1,0],[0.25,1,0],[0,0.75,0],[0,0.5,0],[0,0.25,0]];shape=mxgraph.bpmn.task;whiteSpace=wrap;rectStyle=rounded;size=10;html=1;container=1;expand=0;collapsible=0;taskMarker=abstract;isLoopSub=1;" vertex="1" parent="VBmdsLyCv_HSWNaAxPap-36">
          <mxGeometry x="530" y="360" width="120" height="60" as="geometry" />
        </mxCell>
        <mxCell id="VBmdsLyCv_HSWNaAxPap-104" value="" style="edgeStyle=orthogonalEdgeStyle;fontSize=12;html=1;endArrow=blockThin;endFill=1;rounded=0;entryX=0.5;entryY=1;entryDx=0;entryDy=0;entryPerimeter=0;" edge="1" parent="VBmdsLyCv_HSWNaAxPap-36" target="VBmdsLyCv_HSWNaAxPap-84">
          <mxGeometry width="160" relative="1" as="geometry">
            <mxPoint x="650" y="389.5" as="sourcePoint" />
            <mxPoint x="870" y="320" as="targetPoint" />
          </mxGeometry>
        </mxCell>
        <mxCell id="VBmdsLyCv_HSWNaAxPap-112" value="" style="points=[[0.25,0.25,0],[0.5,0,0],[0.75,0.25,0],[1,0.5,0],[0.75,0.75,0],[0.5,1,0],[0.25,0.75,0],[0,0.5,0]];shape=mxgraph.bpmn.gateway2;html=1;verticalLabelPosition=bottom;labelBackgroundColor=#ffffff;verticalAlign=top;align=center;perimeter=rhombusPerimeter;outlineConnect=0;outline=none;symbol=none;gwType=exclusive;" vertex="1" parent="VBmdsLyCv_HSWNaAxPap-36">
          <mxGeometry x="60" y="445" width="50" height="50" as="geometry" />
        </mxCell>
        <mxCell id="VBmdsLyCv_HSWNaAxPap-113" value="" style="fontSize=12;html=1;endArrow=blockThin;endFill=1;rounded=0;exitX=0.5;exitY=1;exitDx=0;exitDy=0;exitPerimeter=0;entryX=0.5;entryY=0;entryDx=0;entryDy=0;entryPerimeter=0;" edge="1" parent="VBmdsLyCv_HSWNaAxPap-36" source="VBmdsLyCv_HSWNaAxPap-112" target="VBmdsLyCv_HSWNaAxPap-115">
          <mxGeometry width="160" relative="1" as="geometry">
            <mxPoint x="115" y="485" as="sourcePoint" />
            <mxPoint x="85" y="530" as="targetPoint" />
          </mxGeometry>
        </mxCell>
        <mxCell id="VBmdsLyCv_HSWNaAxPap-127" value="Клиент отменил бронирование" style="edgeLabel;html=1;align=center;verticalAlign=middle;resizable=0;points=[];" vertex="1" connectable="0" parent="VBmdsLyCv_HSWNaAxPap-113">
          <mxGeometry x="0.0333" relative="1" as="geometry">
            <mxPoint y="1" as="offset" />
          </mxGeometry>
        </mxCell>
        <mxCell id="VBmdsLyCv_HSWNaAxPap-117" value="" style="edgeStyle=elbowEdgeStyle;fontSize=12;html=1;endArrow=blockThin;endFill=1;rounded=0;exitX=1;exitY=0.5;exitDx=0;exitDy=0;exitPerimeter=0;" edge="1" parent="VBmdsLyCv_HSWNaAxPap-36" source="VBmdsLyCv_HSWNaAxPap-115">
          <mxGeometry width="160" relative="1" as="geometry">
            <mxPoint x="90" y="554.5" as="sourcePoint" />
            <mxPoint x="205" y="555" as="targetPoint" />
          </mxGeometry>
        </mxCell>
        <mxCell id="VBmdsLyCv_HSWNaAxPap-118" value="Отменить бронь" style="points=[[0.145,0.145,0],[0.5,0,0],[0.855,0.145,0],[1,0.5,0],[0.855,0.855,0],[0.5,1,0],[0.145,0.855,0],[0,0.5,0]];shape=mxgraph.bpmn.event;html=1;verticalLabelPosition=bottom;labelBackgroundColor=#ffffff;verticalAlign=top;align=center;perimeter=ellipsePerimeter;outlineConnect=0;aspect=fixed;outline=end;symbol=terminate2;" vertex="1" parent="VBmdsLyCv_HSWNaAxPap-36">
          <mxGeometry x="205" y="535" width="40" height="40" as="geometry" />
        </mxCell>
        <mxCell id="VBmdsLyCv_HSWNaAxPap-120" value="Получить контактные данные клиента" style="points=[[0.25,0,0],[0.5,0,0],[0.75,0,0],[1,0.25,0],[1,0.5,0],[1,0.75,0],[0.75,1,0],[0.5,1,0],[0.25,1,0],[0,0.75,0],[0,0.5,0],[0,0.25,0]];shape=mxgraph.bpmn.task;whiteSpace=wrap;rectStyle=rounded;size=10;html=1;container=1;expand=0;collapsible=0;taskMarker=abstract;" vertex="1" parent="VBmdsLyCv_HSWNaAxPap-36">
          <mxGeometry x="1060" y="20" width="120" height="60" as="geometry" />
        </mxCell>
        <mxCell id="VBmdsLyCv_HSWNaAxPap-115" value="&lt;div&gt;Уведомить службу&lt;/div&gt;&lt;div&gt;размещения&lt;/div&gt;" style="points=[[0.145,0.145,0],[0.5,0,0],[0.855,0.145,0],[1,0.5,0],[0.855,0.855,0],[0.5,1,0],[0.145,0.855,0],[0,0.5,0]];shape=mxgraph.bpmn.event;html=1;verticalLabelPosition=bottom;labelBackgroundColor=#ffffff;verticalAlign=top;align=center;perimeter=ellipsePerimeter;outlineConnect=0;aspect=fixed;outline=throwing;symbol=message;" vertex="1" parent="VBmdsLyCv_HSWNaAxPap-36">
          <mxGeometry x="65" y="535" width="40" height="40" as="geometry" />
        </mxCell>
        <mxCell id="VBmdsLyCv_HSWNaAxPap-122" value="" style="fontSize=12;html=1;endArrow=blockThin;endFill=1;rounded=0;exitX=1;exitY=0.5;exitDx=0;exitDy=0;exitPerimeter=0;" edge="1" parent="VBmdsLyCv_HSWNaAxPap-36" target="VBmdsLyCv_HSWNaAxPap-128">
          <mxGeometry width="160" relative="1" as="geometry">
            <mxPoint x="110" y="470.00000000000006" as="sourcePoint" />
            <mxPoint x="165" y="470.5" as="targetPoint" />
          </mxGeometry>
        </mxCell>
        <mxCell id="VBmdsLyCv_HSWNaAxPap-139" value="Нет" style="edgeLabel;html=1;align=center;verticalAlign=middle;resizable=0;points=[];" vertex="1" connectable="0" parent="VBmdsLyCv_HSWNaAxPap-122">
          <mxGeometry x="-0.2519" y="1" relative="1" as="geometry">
            <mxPoint as="offset" />
          </mxGeometry>
        </mxCell>
        <mxCell id="VBmdsLyCv_HSWNaAxPap-119" value="" style="fontSize=12;html=1;endFill=0;startFill=0;endSize=6;startSize=6;dashed=1;dashPattern=1 4;endArrow=openThin;startArrow=none;rounded=0;entryX=0;entryY=0.5;entryDx=0;entryDy=0;entryPerimeter=0;jumpStyle=none;edgeStyle=orthogonalEdgeStyle;" edge="1" parent="VBmdsLyCv_HSWNaAxPap-36" target="VBmdsLyCv_HSWNaAxPap-112">
          <mxGeometry width="160" relative="1" as="geometry">
            <mxPoint x="50" y="-80" as="sourcePoint" />
            <mxPoint x="55" y="445" as="targetPoint" />
            <Array as="points">
              <mxPoint x="50" y="470" />
            </Array>
          </mxGeometry>
        </mxCell>
        <mxCell id="VBmdsLyCv_HSWNaAxPap-125" value="" style="edgeStyle=orthogonalEdgeStyle;fontSize=12;html=1;endArrow=blockThin;endFill=1;rounded=0;exitX=1;exitY=0.5;exitDx=0;exitDy=0;exitPerimeter=0;entryX=0.5;entryY=0;entryDx=0;entryDy=0;entryPerimeter=0;" edge="1" parent="VBmdsLyCv_HSWNaAxPap-36" source="VBmdsLyCv_HSWNaAxPap-89" target="VBmdsLyCv_HSWNaAxPap-112">
          <mxGeometry width="160" relative="1" as="geometry">
            <mxPoint x="1180" y="250" as="sourcePoint" />
            <mxPoint x="72" y="420" as="targetPoint" />
            <Array as="points">
              <mxPoint x="1190" y="250" />
              <mxPoint x="1190" y="430" />
              <mxPoint x="85" y="430" />
            </Array>
          </mxGeometry>
        </mxCell>
        <mxCell id="VBmdsLyCv_HSWNaAxPap-128" value="Дата заезда" style="points=[[0.145,0.145,0],[0.5,0,0],[0.855,0.145,0],[1,0.5,0],[0.855,0.855,0],[0.5,1,0],[0.145,0.855,0],[0,0.5,0]];shape=mxgraph.bpmn.event;html=1;verticalLabelPosition=bottom;labelBackgroundColor=#ffffff;verticalAlign=top;align=center;perimeter=ellipsePerimeter;outlineConnect=0;aspect=fixed;outline=boundNonint;symbol=timer;" vertex="1" parent="VBmdsLyCv_HSWNaAxPap-36">
          <mxGeometry x="200" y="450" width="40" height="40" as="geometry" />
        </mxCell>
        <mxCell id="VBmdsLyCv_HSWNaAxPap-129" value="" style="fontSize=12;html=1;endArrow=blockThin;endFill=1;rounded=0;exitX=1;exitY=0.5;exitDx=0;exitDy=0;exitPerimeter=0;" edge="1" parent="VBmdsLyCv_HSWNaAxPap-36">
          <mxGeometry width="160" relative="1" as="geometry">
            <mxPoint x="240" y="469.33000000000004" as="sourcePoint" />
            <mxPoint x="330" y="469.33000000000004" as="targetPoint" />
          </mxGeometry>
        </mxCell>
        <mxCell id="VBmdsLyCv_HSWNaAxPap-81" value="&lt;div&gt;Клиент выбрал&lt;/div&gt;&lt;div&gt;офлайн оплату?&lt;br&gt;&lt;/div&gt;" style="points=[[0.25,0.25,0],[0.5,0,0],[0.75,0.25,0],[1,0.5,0],[0.75,0.75,0],[0.5,1,0],[0.25,0.75,0],[0,0.5,0]];shape=mxgraph.bpmn.gateway2;html=1;verticalLabelPosition=bottom;labelBackgroundColor=#ffffff;verticalAlign=top;align=center;perimeter=rhombusPerimeter;outlineConnect=0;outline=none;symbol=none;gwType=exclusive;" vertex="1" parent="VBmdsLyCv_HSWNaAxPap-36">
          <mxGeometry x="565" y="225" width="50" height="50" as="geometry" />
        </mxCell>
        <mxCell id="VBmdsLyCv_HSWNaAxPap-98" value="" style="fontSize=12;html=1;endArrow=blockThin;endFill=1;rounded=0;exitX=0.5;exitY=1;exitDx=0;exitDy=0;exitPerimeter=0;entryX=0.5;entryY=0;entryDx=0;entryDy=0;entryPerimeter=0;" edge="1" parent="VBmdsLyCv_HSWNaAxPap-36" source="VBmdsLyCv_HSWNaAxPap-81" target="VBmdsLyCv_HSWNaAxPap-103">
          <mxGeometry width="160" relative="1" as="geometry">
            <mxPoint x="520" y="249.50000000000006" as="sourcePoint" />
            <mxPoint x="590" y="350" as="targetPoint" />
          </mxGeometry>
        </mxCell>
        <mxCell id="VBmdsLyCv_HSWNaAxPap-140" value="" style="points=[[0.145,0.145,0],[0.5,0,0],[0.855,0.145,0],[1,0.5,0],[0.855,0.855,0],[0.5,1,0],[0.145,0.855,0],[0,0.5,0]];shape=mxgraph.bpmn.event;html=1;verticalLabelPosition=bottom;labelBackgroundColor=#ffffff;verticalAlign=top;align=center;perimeter=ellipsePerimeter;outlineConnect=0;aspect=fixed;outline=end;symbol=terminate2;" vertex="1" parent="VBmdsLyCv_HSWNaAxPap-36">
          <mxGeometry x="330" y="450" width="40" height="40" as="geometry" />
        </mxCell>
        <mxCell id="VBmdsLyCv_HSWNaAxPap-17" value="" style="edgeStyle=elbowEdgeStyle;fontSize=12;html=1;endFill=0;startFill=0;endSize=6;startSize=6;dashed=1;dashPattern=1 4;endArrow=openThin;startArrow=none;rounded=0;entryX=0.5;entryY=0;entryDx=0;entryDy=0;entryPerimeter=0;" edge="1" parent="1" target="VBmdsLyCv_HSWNaAxPap-42">
          <mxGeometry width="160" relative="1" as="geometry">
            <mxPoint x="550" y="60" as="sourcePoint" />
            <mxPoint x="549.5" y="160" as="targetPoint" />
            <Array as="points">
              <mxPoint x="549.5" y="90" />
            </Array>
          </mxGeometry>
        </mxCell>
        <mxCell id="VBmdsLyCv_HSWNaAxPap-4" value="" style="edgeStyle=elbowEdgeStyle;fontSize=12;html=1;endFill=0;startFill=0;endSize=6;startSize=6;dashed=1;dashPattern=1 4;endArrow=openThin;startArrow=none;rounded=0;entryX=0.5;entryY=0;entryDx=0;entryDy=0;entryPerimeter=0;" edge="1" parent="1" target="VBmdsLyCv_HSWNaAxPap-37">
          <mxGeometry width="160" relative="1" as="geometry">
            <mxPoint x="240" y="60" as="sourcePoint" />
            <mxPoint x="239.5" y="160" as="targetPoint" />
            <Array as="points">
              <mxPoint x="239.5" y="90" />
            </Array>
          </mxGeometry>
        </mxCell>
        <mxCell id="VBmdsLyCv_HSWNaAxPap-56" value="" style="edgeStyle=elbowEdgeStyle;fontSize=12;html=1;endFill=0;startFill=0;endSize=6;startSize=6;dashed=1;dashPattern=1 4;endArrow=openThin;startArrow=none;rounded=0;entryX=0.5;entryY=0;entryDx=0;entryDy=0;entryPerimeter=0;" edge="1" parent="1" target="VBmdsLyCv_HSWNaAxPap-120">
          <mxGeometry width="160" relative="1" as="geometry">
            <mxPoint x="1240" y="90" as="sourcePoint" />
            <mxPoint x="1240" y="150" as="targetPoint" />
            <Array as="points">
              <mxPoint x="1240" y="60" />
            </Array>
          </mxGeometry>
        </mxCell>
        <mxCell id="VBmdsLyCv_HSWNaAxPap-83" value="" style="fontSize=12;html=1;endFill=0;startFill=0;endSize=6;startSize=6;dashed=1;dashPattern=1 4;endArrow=openThin;startArrow=none;rounded=0;entryX=0.675;entryY=-0.017;entryDx=0;entryDy=0;entryPerimeter=0;" edge="1" parent="1" target="VBmdsLyCv_HSWNaAxPap-71">
          <mxGeometry width="160" relative="1" as="geometry">
            <mxPoint x="591" y="60" as="sourcePoint" />
            <mxPoint x="590" y="160" as="targetPoint" />
          </mxGeometry>
        </mxCell>
        <mxCell id="VBmdsLyCv_HSWNaAxPap-88" value="" style="shape=mxgraph.bpmn.data;labelPosition=center;verticalLabelPosition=bottom;align=center;verticalAlign=top;size=12;html=1;" vertex="1" parent="1">
          <mxGeometry x="990" y="90" width="20" height="30" as="geometry" />
        </mxCell>
        <mxCell id="VBmdsLyCv_HSWNaAxPap-95" value="" style="edgeStyle=elbowEdgeStyle;fontSize=12;html=1;endFill=0;startFill=0;endSize=6;startSize=6;dashed=1;dashPattern=1 4;endArrow=openThin;startArrow=none;rounded=0;exitX=0.5;exitY=1;exitDx=0;exitDy=0;exitPerimeter=0;" edge="1" parent="1" source="VBmdsLyCv_HSWNaAxPap-89">
          <mxGeometry width="160" relative="1" as="geometry">
            <mxPoint x="1070" y="590" as="sourcePoint" />
            <mxPoint x="1140" y="840" as="targetPoint" />
          </mxGeometry>
        </mxCell>
        <mxCell id="VBmdsLyCv_HSWNaAxPap-97" value="" style="shape=mxgraph.bpmn.data;labelPosition=center;verticalLabelPosition=bottom;align=center;verticalAlign=top;size=12;html=1;" vertex="1" parent="1">
          <mxGeometry x="1150" y="790" width="20" height="30" as="geometry" />
        </mxCell>
        <mxCell id="VBmdsLyCv_HSWNaAxPap-116" value="" style="fontSize=12;html=1;endFill=0;startFill=0;endSize=6;startSize=6;dashed=1;dashPattern=1 4;endArrow=openThin;startArrow=none;rounded=0;" edge="1" parent="1">
          <mxGeometry width="160" relative="1" as="geometry">
            <mxPoint x="204.32999999999998" y="715.004916731037" as="sourcePoint" />
            <mxPoint x="204" y="840" as="targetPoint" />
          </mxGeometry>
        </mxCell>
        <mxCell id="VBmdsLyCv_HSWNaAxPap-136" value="&lt;div&gt;ФИО, телефон,&lt;/div&gt;&lt;div&gt;эл.почта&lt;/div&gt;" style="shape=mxgraph.bpmn.data;labelPosition=center;verticalLabelPosition=bottom;align=center;verticalAlign=top;size=15;html=1;bpmnTransferType=input;" vertex="1" parent="1">
          <mxGeometry x="1250" y="60" width="30" height="40" as="geometry" />
        </mxCell>
      </root>
    </mxGraphModel>
  </diagram>
</mxfile>
